<svg width="327" height="211" viewBox="0 0 327 211" fill="none" xmlns="http://www.w3.org/2000/svg">
<path d="M83.0273 69.9844C82.4023 72.1328 81.0352 76.6055 78.9258 83.4023C76.8555 90.1992 75.0977 95.6289 73.6523 99.6914L60 138.598H48.457L34.8047 99.6914C33.2031 95.1211 31.4062 89.5547 29.4141 82.9922C27.4219 76.3906 26.0938 72.0547 25.4297 69.9844L21.8555 99.6914L16.6992 141H5.74219L16.582 56.0391H30.8203L46.1719 100.922C46.6406 102.445 47.207 104.164 47.8711 106.078C48.5352 107.992 49.2188 110.082 49.9219 112.348C51.8359 118.441 53.2812 122.875 54.2578 125.648C55.2344 122.836 56.6602 118.402 58.5352 112.348C59.2383 110.121 59.9219 108.051 60.5859 106.137C61.25 104.184 61.8164 102.445 62.2852 100.922L77.6367 56.0391H91.9336L102.715 141H91.8164L86.6602 99.6914L83.0273 69.9844ZM133.125 141L109.688 79.3008H120.879L128.789 100.805L130.84 106.312L138.516 127.816L141.035 120.258C141.426 119.047 142.285 116.469 143.613 112.523C144.941 108.539 146.328 104.633 147.773 100.805L155.801 79.3008H167.051L132.773 169.301H122.578L133.125 141ZM169.336 141L191.777 108.949L171.152 79.3008H184.336L198.867 100.453L213.281 79.3008H226.465L205.84 108.949L228.281 141L215.098 141.117L198.867 117.504L182.578 141.117L169.336 141Z" fill="white"/>
<circle cx="275" cy="109" r="44" stroke="white" stroke-width="6"/>
<circle cx="275" cy="109" r="26.5" fill="white" stroke="white" stroke-width="7"/>
</svg>
